<svg width="113" height="41" viewBox="0 0 113 41" fill="none" xmlns="http://www.w3.org/2000/svg">
<path d="M33.9256 31.6209C33.0803 32.0346 32.7375 33.0572 33.1513 33.8965C33.1513 33.8965 33.1513 33.9025 33.1572 33.9025C32.0696 34.8127 30.8638 35.6048 29.5398 36.255C20.5908 40.6585 9.76806 36.9702 5.36449 28.0212C0.960928 19.0722 4.64928 8.24948 13.5983 3.84592C14.9223 3.19573 16.2936 2.72286 17.6708 2.4155C17.6767 2.42732 17.6826 2.43914 17.6886 2.45096C18.1023 3.29621 19.1249 3.63904 19.9642 3.22528C20.8095 2.81152 21.1582 1.78895 20.7385 0.949615C20.3248 0.104367 19.3022 -0.238461 18.4629 0.175296C17.9309 0.435373 17.5999 0.937792 17.529 1.48159C15.3065 1.71802 13.0899 2.34457 10.968 3.38487C1.23874 8.16673 -2.76289 19.9352 2.01897 29.6644C6.80673 39.3936 18.5693 43.3952 28.2985 38.6134C30.4146 37.5731 32.2587 36.2018 33.8015 34.594C34.2802 34.8837 34.895 34.9369 35.4329 34.6709C36.2781 34.2571 36.6209 33.2345 36.2072 32.3952C35.7875 31.5559 34.7649 31.2071 33.9256 31.6209Z" fill="#79A429"/>
<path d="M22.6251 33.7311C21.9512 33.4533 21.1828 33.7666 20.8991 34.4404V34.4463C19.8174 34.2749 18.7358 33.9794 17.6777 33.5361C10.5374 30.5629 7.16236 22.3587 10.1414 15.2184C13.1146 8.07815 21.3129 4.70307 28.4531 7.67621C29.5112 8.11953 30.4865 8.67514 31.3672 9.32534C31.3613 9.33716 31.3554 9.34307 31.3554 9.35489C31.0776 10.0287 31.3908 10.803 32.0647 11.0809C32.7385 11.3587 33.5128 11.0454 33.7906 10.3716C34.0684 9.69772 33.7552 8.9234 33.0813 8.64559C32.6557 8.46827 32.1947 8.53329 31.84 8.76972C30.5633 7.59346 29.0679 6.61818 27.3774 5.91479C19.6165 2.68157 10.7029 6.34628 7.46972 14.1072C4.2365 21.8681 7.90121 30.7816 15.6621 34.0149C17.3526 34.7182 19.0904 35.0965 20.8223 35.1734C20.8991 35.599 21.1828 35.9832 21.6143 36.1664C22.2882 36.4442 23.0625 36.1309 23.3403 35.4571C23.6181 34.7833 23.2989 34.0089 22.6251 33.7311Z" fill="#2088D2"/>
<path d="M32.8433 24.0662C32.5419 25.1243 32.0927 26.0641 31.4839 26.8916C30.875 27.7191 30.1244 28.4402 29.2259 29.0609C28.3275 29.6815 27.3936 30.1425 26.4183 30.4381C25.443 30.7336 24.4263 30.8873 23.3683 30.8873C23.321 30.8873 23.2678 30.8873 23.2146 30.8873C23.1555 30.8873 23.1082 30.8873 23.0609 30.8873C23.0373 30.8873 23.0077 30.8873 22.9723 30.8873C22.9368 30.8873 22.9072 30.8873 22.8836 30.8873C22.86 30.8637 22.8363 30.8518 22.8127 30.8518C22.789 30.8518 22.7654 30.8518 22.7417 30.8518C22.1447 30.8282 21.5537 30.7514 20.9685 30.6095C20.3833 30.4735 19.8041 30.2903 19.2307 30.0598C18.6574 29.8056 18.1195 29.5219 17.6289 29.1968C17.1324 28.8776 16.6831 28.5052 16.2694 28.0915C15.767 27.6068 15.3118 27.0807 14.9099 26.5074C14.508 25.934 14.1829 25.3252 13.9287 24.6809C13.6745 24.0367 13.4854 23.3806 13.3613 22.7185C13.2312 22.0506 13.1721 21.365 13.1721 20.6498C13.1721 19.2489 13.4263 17.9544 13.9287 16.7723C14.4311 15.5901 15.1818 14.5143 16.1689 13.5509C17.1797 12.5874 18.2791 11.8545 19.4612 11.3639C20.6434 10.8733 21.9379 10.625 23.3387 10.625C24.3968 10.625 25.4134 10.7846 26.3887 11.1097C27.364 11.4289 28.3097 11.9136 29.2318 12.5578C30.148 13.2021 30.9105 13.941 31.5075 14.7803C32.1045 15.6196 32.5537 16.5536 32.8492 17.588L27.6832 17.517C27.429 17.1269 27.1512 16.7841 26.8379 16.4826C26.5306 16.1871 26.1878 15.9329 25.8213 15.726C25.4548 15.5192 25.0588 15.3655 24.6332 15.2591C24.2076 15.1586 23.7525 15.1054 23.2737 15.1054C22.4462 15.1054 21.7073 15.2414 21.0512 15.5192C20.3951 15.797 19.8041 16.1989 19.278 16.725C18.7697 17.2747 18.3914 17.8776 18.1431 18.5337C17.889 19.1898 17.7648 19.9168 17.7648 20.7207C17.7648 21.5718 17.8949 22.3403 18.1609 23.0318C18.4268 23.7234 18.8347 24.3322 19.3844 24.8583C19.9105 25.408 20.5193 25.8158 21.2108 26.0818C21.9024 26.3478 22.6708 26.4778 23.522 26.4778C23.9357 26.4778 24.3436 26.4246 24.7455 26.3241C25.1474 26.2178 25.5317 26.0641 25.8981 25.8572C26.2882 25.6503 26.6252 25.4021 26.9148 25.1183C27.2044 24.8287 27.4586 24.5036 27.6891 24.1371V24.0662H32.8433Z" fill="#010203"/>
<path d="M38.0154 22.7599C38.1987 23.3569 38.4469 23.883 38.7543 24.3263C39.0676 24.7755 39.4459 25.1597 39.9069 25.4789C40.3679 25.8217 40.8585 26.0759 41.3905 26.2355C41.9166 26.3951 42.4722 26.4778 43.0455 26.4778C43.4829 26.4778 43.9085 26.4424 44.3223 26.3773C44.736 26.3064 45.1262 26.1941 45.4926 26.0345C45.8827 25.8986 46.2256 25.7272 46.527 25.5203C46.8226 25.3134 47.0885 25.0829 47.3191 24.8287L52.3846 24.7578C52.0832 25.6326 51.6458 26.4365 51.0606 27.1694C50.4755 27.9023 49.7425 28.5703 48.8736 29.1673C47.9988 29.7406 47.0945 30.1721 46.1487 30.4617C45.2089 30.7514 44.2277 30.8932 43.217 30.8932C41.8161 30.8932 40.5216 30.6568 39.3395 30.1839C38.1573 29.7111 37.0697 28.9958 36.0826 28.0324C35.0955 27.0689 34.3566 25.9931 33.8779 24.811C33.3932 23.6288 33.1567 22.3343 33.1567 20.9335C33.1567 19.509 33.3991 18.1909 33.8779 16.985C34.3625 15.7792 35.0955 14.668 36.0826 13.6573C37.0461 12.6465 38.1337 11.8899 39.3395 11.3816C40.5453 10.8792 41.8634 10.625 43.2879 10.625C44.6415 10.625 45.9005 10.8792 47.059 11.3816C48.2175 11.884 49.2696 12.6465 50.2095 13.6573C51.1493 14.6444 51.8645 15.726 52.3433 16.8964C52.828 18.0667 53.0644 19.3198 53.0644 20.6498C53.0644 20.8094 53.0585 20.963 53.0467 21.1167C53.0348 21.2645 53.0171 21.4123 52.9935 21.5482C52.9698 21.6842 52.9521 21.826 52.9403 21.962C52.9284 22.0979 52.9107 22.2398 52.8871 22.3757C52.8634 22.423 52.8457 22.4644 52.8339 22.4939C52.822 22.5294 52.8161 22.5708 52.8161 22.6122C52.8161 22.6358 52.8161 22.6653 52.8161 22.7008C52.8161 22.7363 52.8161 22.7777 52.8161 22.819V22.7481H38.0154V22.7599ZM48.4599 18.6933C48.2766 18.1672 48.0165 17.6766 47.6855 17.2274C47.3545 16.7782 46.9467 16.394 46.462 16.0748C45.9773 15.7556 45.4749 15.5133 44.9429 15.3537C44.4169 15.1941 43.8494 15.1113 43.2524 15.1113C43.2288 15.1113 43.2051 15.1113 43.1815 15.1113C43.1579 15.1113 43.1342 15.1113 43.1106 15.1113C43.0869 15.1113 43.0633 15.1113 43.0396 15.1113C43.016 15.1113 42.9923 15.1113 42.9687 15.1113C42.419 15.135 41.8811 15.2414 41.3669 15.4364C40.8526 15.6315 40.3502 15.8915 39.8655 16.2107C39.3808 16.5299 38.9789 16.9082 38.6597 17.3279C38.3346 17.7535 38.0982 18.2322 37.9386 18.7583V18.6874H48.4599V18.6933Z" fill="#010203"/>
<path d="M53.9756 4.80322H58.5624V30.273H53.9756V4.80322Z" fill="#010203"/>
<path d="M64.2066 22.7599C64.3899 23.3569 64.6381 23.883 64.9455 24.3263C65.2529 24.7755 65.6371 25.1597 66.0981 25.4789C66.5592 25.8217 67.0498 26.0759 67.5817 26.2355C68.1078 26.3951 68.6634 26.4778 69.2368 26.4778C69.6742 26.4778 70.0997 26.4424 70.5135 26.3773C70.9273 26.3064 71.3174 26.1941 71.6838 26.0345C72.074 25.8986 72.4168 25.7272 72.7182 25.5203C73.0197 25.3134 73.2798 25.0829 73.5103 24.8287L78.5759 24.7578C78.2744 25.6326 77.837 26.4365 77.2459 27.1694C76.6608 27.9023 75.9278 28.5703 75.0589 29.1673C74.1841 29.7406 73.2798 30.1721 72.334 30.4617C71.3883 30.7514 70.413 30.8932 69.4023 30.8932C68.0014 30.8932 66.7069 30.6568 65.5248 30.1839C64.3426 29.7111 63.255 28.9958 62.2679 28.0324C61.2808 27.0689 60.5419 25.9931 60.0632 24.811C59.5785 23.6288 59.342 22.3343 59.342 20.9335C59.342 19.509 59.5844 18.1909 60.0632 16.985C60.5478 15.7792 61.2808 14.668 62.2679 13.6573C63.2314 12.6465 64.319 11.8899 65.5248 11.3816C66.7306 10.8792 68.0487 10.625 69.4732 10.625C70.8268 10.625 72.0858 10.8792 73.2502 11.3816C74.4087 11.884 75.4609 12.6465 76.4007 13.6573C77.3405 14.6444 78.0557 15.726 78.5345 16.8964C79.0192 18.0667 79.2556 19.3198 79.2556 20.6498C79.2556 20.8094 79.2497 20.963 79.2379 21.1167C79.2261 21.2645 79.2083 21.4123 79.1847 21.5482C79.161 21.6842 79.1433 21.826 79.1315 21.962C79.1197 22.0979 79.1019 22.2398 79.0783 22.3757C79.0546 22.423 79.0369 22.4644 79.0251 22.4939C79.0133 22.5294 79.0074 22.5708 79.0074 22.6122C79.0074 22.6358 79.0074 22.6653 79.0074 22.7008C79.0074 22.7363 79.0074 22.7777 79.0074 22.819V22.7481H64.2066V22.7599ZM74.6511 18.6933C74.4678 18.1672 74.2078 17.6766 73.8768 17.2274C73.5458 16.7782 73.1379 16.394 72.6532 16.0748C72.1685 15.7556 71.6661 15.5133 71.1401 15.3537C70.614 15.1941 70.0465 15.1113 69.4496 15.1113C69.4259 15.1113 69.4023 15.1113 69.3786 15.1113C69.355 15.1113 69.3313 15.1113 69.3077 15.1113C69.284 15.1113 69.2604 15.1113 69.2368 15.1113C69.2131 15.1113 69.1895 15.1113 69.1658 15.1113C68.6161 15.135 68.0782 15.2414 67.564 15.4364C67.0438 15.6315 66.5473 15.8915 66.0626 16.2107C65.578 16.5299 65.176 16.9082 64.8568 17.3279C64.5317 17.7535 64.2953 18.2322 64.1357 18.7583V18.6874H74.6511V18.6933Z" fill="#010203"/>
<path d="M80.8509 15.2476H78.6107V11.181H80.8509V4.80322H85.4377V11.181H88.1922V15.2476H85.4377V30.273H80.8509V15.2476Z" fill="#010203"/>
<path d="M92.4659 22.7599C92.6492 23.3569 92.8974 23.883 93.2048 24.3263C93.5122 24.7755 93.9023 25.1597 94.3574 25.4789C94.8184 25.8217 95.309 26.0759 95.841 26.2355C96.3671 26.3951 96.9227 26.4778 97.496 26.4778C97.9334 26.4778 98.359 26.4424 98.7728 26.3773C99.1865 26.3064 99.5767 26.1941 99.9431 26.0345C100.333 25.8986 100.676 25.7272 100.978 25.5203C101.273 25.3134 101.539 25.0829 101.77 24.8287L106.835 24.7578C106.534 25.6326 106.096 26.4365 105.505 27.1694C104.92 27.9023 104.187 28.5703 103.318 29.1673C102.443 29.7406 101.539 30.1721 100.593 30.4617C99.6535 30.7514 98.6723 30.8932 97.6615 30.8932C96.2607 30.8932 94.9662 30.6568 93.784 30.1839C92.6019 29.7111 91.5143 28.9958 90.5272 28.0324C89.5401 27.0689 88.8071 25.9931 88.3224 24.811C87.8378 23.6288 87.6013 22.3343 87.6013 20.9335C87.6013 19.509 87.8437 18.1909 88.3224 16.985C88.8071 15.7792 89.5401 14.668 90.5272 13.6573C91.4906 12.6465 92.5782 11.8899 93.784 11.3816C94.9899 10.8792 96.3021 10.625 97.7325 10.625C99.0861 10.625 100.345 10.8792 101.504 11.3816C102.662 11.884 103.714 12.6465 104.654 13.6573C105.594 14.6444 106.309 15.726 106.794 16.8964C107.278 18.0667 107.515 19.3198 107.515 20.6498C107.515 20.8094 107.509 20.963 107.497 21.1167C107.485 21.2645 107.468 21.4123 107.444 21.5482C107.42 21.6842 107.403 21.826 107.391 21.962C107.379 22.0979 107.361 22.2398 107.338 22.3757C107.314 22.423 107.296 22.4644 107.284 22.4939C107.273 22.5294 107.267 22.5708 107.267 22.6122C107.267 22.6358 107.267 22.6653 107.267 22.7008C107.267 22.7363 107.267 22.7777 107.267 22.819V22.7481H92.4659V22.7599ZM102.91 18.6933C102.727 18.1672 102.467 17.6766 102.136 17.2274C101.805 16.7782 101.397 16.394 100.913 16.0748C100.428 15.7556 99.9254 15.5133 99.3934 15.3537C98.8674 15.1941 98.2999 15.1113 97.7029 15.1113C97.6793 15.1113 97.6556 15.1113 97.632 15.1113C97.6083 15.1113 97.5847 15.1113 97.5611 15.1113C97.5374 15.1113 97.5138 15.1113 97.4901 15.1113C97.4665 15.1113 97.4428 15.1113 97.4192 15.1113C96.8695 15.135 96.3316 15.2414 95.8174 15.4364C95.3031 15.6315 94.8007 15.8915 94.316 16.2107C93.8313 16.5299 93.4294 16.9082 93.1102 17.3279C92.7851 17.7535 92.5487 18.2322 92.3832 18.7583V18.6874H102.91V18.6933Z" fill="#010203"/>
<path d="M108.418 4.80322H112.999V30.273H108.418V4.80322Z" fill="#010203"/>
<path d="M18.4564 0.18137C17.9244 0.441447 17.5934 0.943868 17.5225 1.48766C15.3 1.7241 13.0834 2.35064 10.9615 3.39095C4.79056 6.42911 0.924882 12.2749 0.144653 18.6231C1.19678 19.1256 2.31984 19.5866 3.50791 19.9885C3.53155 13.3448 7.23173 6.97291 13.5918 3.84017C14.9158 3.18998 16.2871 2.71711 17.6643 2.40975C17.6702 2.42157 17.6762 2.4334 17.6821 2.44522C18.0958 3.29046 19.1184 3.63329 19.9577 3.21954C20.803 2.80578 21.1517 1.7832 20.7321 0.943867C20.3183 0.116352 19.3016 -0.232387 18.4564 0.18137Z" fill="#C4D800"/>
<path d="M33.0799 8.64559C32.6543 8.46827 32.1933 8.53329 31.8386 8.76972C30.5619 7.59346 29.0665 6.61818 27.376 5.91479C19.615 2.68157 10.7015 6.34628 7.4683 14.1072C6.55212 16.3119 6.19156 18.6053 6.3216 20.8396C7.22005 21.0701 8.14213 21.2652 9.08787 21.4366C8.96374 19.3737 9.29474 17.2577 10.14 15.2184C13.1131 8.07815 21.3115 4.70307 28.4517 7.67621C29.5098 8.11953 30.4851 8.67514 31.3658 9.32534C31.3599 9.33716 31.3539 9.34307 31.3539 9.35489C31.0761 10.0287 31.3894 10.803 32.0632 11.0809C32.7371 11.3587 33.5114 11.0454 33.7892 10.3716C34.067 9.69772 33.7537 8.9234 33.0799 8.64559Z" fill="#7AC8F6"/>
</svg>
